<mxfile host="app.diagrams.net" agent="Mozilla/5.0 (Macintosh; Intel Mac OS X 10_15_7) AppleWebKit/537.36 (KHTML, like Gecko) Chrome/129.0.0.0 Safari/537.36" version="25.0.3" pages="3">
  <diagram id="Ht1M8jgEwFfnCIfOTk4-" name="Survey App">
    <mxGraphModel dx="2120" dy="1344" grid="1" gridSize="10" guides="1" tooltips="1" connect="1" arrows="1" fold="1" page="1" pageScale="1" pageWidth="1169" pageHeight="827" math="0" shadow="0">
      <root>
        <mxCell id="0" />
        <mxCell id="1" parent="0" />
        <mxCell id="nEZqApxPXUkpChrzJhQE-14" style="edgeStyle=orthogonalEdgeStyle;rounded=0;orthogonalLoop=1;jettySize=auto;html=1;" edge="1" parent="1" source="UEzPUAAOIrF-is8g5C7q-109" target="UEzPUAAOIrF-is8g5C7q-114">
          <mxGeometry relative="1" as="geometry" />
        </mxCell>
        <mxCell id="UEzPUAAOIrF-is8g5C7q-109" value="" style="outlineConnect=0;gradientColor=none;fontColor=#545B64;strokeColor=none;fillColor=#879196;dashed=0;verticalLabelPosition=bottom;verticalAlign=top;align=center;html=1;fontSize=12;fontStyle=0;aspect=fixed;shape=mxgraph.aws4.illustration_desktop;pointerEvents=1;labelBackgroundColor=#ffffff;" vertex="1" parent="1">
          <mxGeometry x="70.75" y="300" width="76.92" height="70" as="geometry" />
        </mxCell>
        <mxCell id="nEZqApxPXUkpChrzJhQE-2" style="edgeStyle=orthogonalEdgeStyle;rounded=0;orthogonalLoop=1;jettySize=auto;html=1;" edge="1" parent="1" source="nEZqApxPXUkpChrzJhQE-1" target="UEzPUAAOIrF-is8g5C7q-109">
          <mxGeometry relative="1" as="geometry" />
        </mxCell>
        <mxCell id="nEZqApxPXUkpChrzJhQE-32" value="" style="edgeStyle=orthogonalEdgeStyle;rounded=0;orthogonalLoop=1;jettySize=auto;html=1;" edge="1" parent="1" source="nEZqApxPXUkpChrzJhQE-1" target="UEzPUAAOIrF-is8g5C7q-109">
          <mxGeometry relative="1" as="geometry" />
        </mxCell>
        <mxCell id="nEZqApxPXUkpChrzJhQE-33" value="" style="edgeStyle=orthogonalEdgeStyle;rounded=0;orthogonalLoop=1;jettySize=auto;html=1;" edge="1" parent="1" source="nEZqApxPXUkpChrzJhQE-1" target="UEzPUAAOIrF-is8g5C7q-109">
          <mxGeometry relative="1" as="geometry" />
        </mxCell>
        <mxCell id="nEZqApxPXUkpChrzJhQE-1" value="Survey Users&lt;div&gt;&lt;br&gt;&lt;/div&gt;" style="sketch=0;outlineConnect=0;gradientColor=none;fontColor=#545B64;strokeColor=none;fillColor=#879196;dashed=0;verticalLabelPosition=bottom;verticalAlign=top;align=center;html=1;fontSize=12;fontStyle=0;aspect=fixed;shape=mxgraph.aws4.illustration_users;pointerEvents=1" vertex="1" parent="1">
          <mxGeometry x="60.5" y="142.5" width="100" height="100" as="geometry" />
        </mxCell>
        <mxCell id="nEZqApxPXUkpChrzJhQE-6" value="AWS Cloud" style="points=[[0,0],[0.25,0],[0.5,0],[0.75,0],[1,0],[1,0.25],[1,0.5],[1,0.75],[1,1],[0.75,1],[0.5,1],[0.25,1],[0,1],[0,0.75],[0,0.5],[0,0.25]];outlineConnect=0;gradientColor=none;html=1;whiteSpace=wrap;fontSize=12;fontStyle=0;container=1;pointerEvents=0;collapsible=0;recursiveResize=0;shape=mxgraph.aws4.group;grIcon=mxgraph.aws4.group_aws_cloud_alt;strokeColor=#232F3E;fillColor=none;verticalAlign=top;align=left;spacingLeft=30;fontColor=#232F3E;dashed=0;" vertex="1" parent="1">
          <mxGeometry x="270" y="70" width="850" height="480" as="geometry" />
        </mxCell>
        <mxCell id="UEzPUAAOIrF-is8g5C7q-114" value="Amazon API&lt;br&gt;Gateway&lt;br&gt;" style="outlineConnect=0;fontColor=#232F3E;gradientColor=#945DF2;gradientDirection=north;fillColor=#5A30B5;strokeColor=#ffffff;dashed=0;verticalLabelPosition=bottom;verticalAlign=top;align=center;html=1;fontSize=12;fontStyle=0;aspect=fixed;shape=mxgraph.aws4.resourceIcon;resIcon=mxgraph.aws4.api_gateway;labelBackgroundColor=#ffffff;" vertex="1" parent="nEZqApxPXUkpChrzJhQE-6">
          <mxGeometry x="60" y="302.94" width="78" height="78" as="geometry" />
        </mxCell>
        <mxCell id="nEZqApxPXUkpChrzJhQE-16" style="edgeStyle=orthogonalEdgeStyle;rounded=0;orthogonalLoop=1;jettySize=auto;html=1;" edge="1" parent="nEZqApxPXUkpChrzJhQE-6" source="UEzPUAAOIrF-is8g5C7q-115" target="UEzPUAAOIrF-is8g5C7q-119">
          <mxGeometry relative="1" as="geometry" />
        </mxCell>
        <mxCell id="nEZqApxPXUkpChrzJhQE-18" style="edgeStyle=orthogonalEdgeStyle;rounded=0;orthogonalLoop=1;jettySize=auto;html=1;" edge="1" parent="nEZqApxPXUkpChrzJhQE-6" source="UEzPUAAOIrF-is8g5C7q-115" target="nEZqApxPXUkpChrzJhQE-17">
          <mxGeometry relative="1" as="geometry" />
        </mxCell>
        <mxCell id="UEzPUAAOIrF-is8g5C7q-115" value="Lambda&lt;br&gt;function" style="outlineConnect=0;fontColor=#232F3E;gradientColor=none;fillColor=#D05C17;strokeColor=none;dashed=0;verticalLabelPosition=bottom;verticalAlign=top;align=center;html=1;fontSize=12;fontStyle=0;aspect=fixed;pointerEvents=1;shape=mxgraph.aws4.lambda_function;labelBackgroundColor=#ffffff;" vertex="1" parent="nEZqApxPXUkpChrzJhQE-6">
          <mxGeometry x="420" y="302.94" width="78" height="78" as="geometry" />
        </mxCell>
        <mxCell id="nEZqApxPXUkpChrzJhQE-9" style="edgeStyle=orthogonalEdgeStyle;rounded=0;orthogonalLoop=1;jettySize=auto;html=1;" edge="1" parent="nEZqApxPXUkpChrzJhQE-6" source="UEzPUAAOIrF-is8g5C7q-114" target="UEzPUAAOIrF-is8g5C7q-115">
          <mxGeometry relative="1" as="geometry" />
        </mxCell>
        <mxCell id="UEzPUAAOIrF-is8g5C7q-119" value="Survey Tables&lt;div&gt;&lt;br&gt;&lt;/div&gt;" style="outlineConnect=0;fontColor=#232F3E;gradientColor=#4D72F3;gradientDirection=north;fillColor=#3334B9;strokeColor=#ffffff;dashed=0;verticalLabelPosition=bottom;verticalAlign=top;align=center;html=1;fontSize=12;fontStyle=0;aspect=fixed;shape=mxgraph.aws4.resourceIcon;resIcon=mxgraph.aws4.dynamodb;labelBackgroundColor=#ffffff;spacingTop=5;" vertex="1" parent="nEZqApxPXUkpChrzJhQE-6">
          <mxGeometry x="420.0000000000002" y="30" width="78" height="78" as="geometry" />
        </mxCell>
        <mxCell id="UEzPUAAOIrF-is8g5C7q-116" value="Amazon S3" style="outlineConnect=0;fontColor=#232F3E;gradientColor=#60A337;gradientDirection=north;fillColor=#277116;strokeColor=#ffffff;dashed=0;verticalLabelPosition=bottom;verticalAlign=top;align=center;html=1;fontSize=12;fontStyle=0;aspect=fixed;shape=mxgraph.aws4.resourceIcon;resIcon=mxgraph.aws4.s3;labelBackgroundColor=#ffffff;" vertex="1" parent="nEZqApxPXUkpChrzJhQE-6">
          <mxGeometry x="200.00000000000023" y="30" width="78" height="78" as="geometry" />
        </mxCell>
        <mxCell id="nEZqApxPXUkpChrzJhQE-15" style="edgeStyle=orthogonalEdgeStyle;rounded=0;orthogonalLoop=1;jettySize=auto;html=1;" edge="1" parent="nEZqApxPXUkpChrzJhQE-6" source="nEZqApxPXUkpChrzJhQE-3" target="UEzPUAAOIrF-is8g5C7q-116">
          <mxGeometry relative="1" as="geometry" />
        </mxCell>
        <mxCell id="nEZqApxPXUkpChrzJhQE-3" value="" style="sketch=0;points=[[0,0,0],[0.25,0,0],[0.5,0,0],[0.75,0,0],[1,0,0],[0,1,0],[0.25,1,0],[0.5,1,0],[0.75,1,0],[1,1,0],[0,0.25,0],[0,0.5,0],[0,0.75,0],[1,0.25,0],[1,0.5,0],[1,0.75,0]];outlineConnect=0;fontColor=#232F3E;fillColor=#8C4FFF;strokeColor=#ffffff;dashed=0;verticalLabelPosition=bottom;verticalAlign=top;align=center;html=1;fontSize=12;fontStyle=0;aspect=fixed;shape=mxgraph.aws4.resourceIcon;resIcon=mxgraph.aws4.cloudfront;" vertex="1" parent="nEZqApxPXUkpChrzJhQE-6">
          <mxGeometry x="50" y="30" width="78" height="78" as="geometry" />
        </mxCell>
        <mxCell id="nEZqApxPXUkpChrzJhQE-17" value="Post Processing Queues" style="sketch=0;points=[[0,0,0],[0.25,0,0],[0.5,0,0],[0.75,0,0],[1,0,0],[0,1,0],[0.25,1,0],[0.5,1,0],[0.75,1,0],[1,1,0],[0,0.25,0],[0,0.5,0],[0,0.75,0],[1,0.25,0],[1,0.5,0],[1,0.75,0]];outlineConnect=0;fontColor=#232F3E;fillColor=#E7157B;strokeColor=#ffffff;dashed=0;verticalLabelPosition=bottom;verticalAlign=top;align=center;html=1;fontSize=12;fontStyle=0;aspect=fixed;shape=mxgraph.aws4.resourceIcon;resIcon=mxgraph.aws4.sqs;" vertex="1" parent="nEZqApxPXUkpChrzJhQE-6">
          <mxGeometry x="680" y="302.94" width="78" height="78" as="geometry" />
        </mxCell>
        <mxCell id="nEZqApxPXUkpChrzJhQE-34" value="&lt;div&gt;Archive&lt;/div&gt;&lt;div&gt;&lt;br&gt;&lt;/div&gt;" style="sketch=0;points=[[0,0,0],[0.25,0,0],[0.5,0,0],[0.75,0,0],[1,0,0],[0,1,0],[0.25,1,0],[0.5,1,0],[0.75,1,0],[1,1,0],[0,0.25,0],[0,0.5,0],[0,0.75,0],[1,0.25,0],[1,0.5,0],[1,0.75,0]];outlineConnect=0;fontColor=#232F3E;fillColor=#C925D1;strokeColor=#ffffff;dashed=0;verticalLabelPosition=bottom;verticalAlign=top;align=center;html=1;fontSize=12;fontStyle=0;aspect=fixed;shape=mxgraph.aws4.resourceIcon;resIcon=mxgraph.aws4.redshift;" vertex="1" parent="nEZqApxPXUkpChrzJhQE-6">
          <mxGeometry x="680" y="30" width="78" height="78" as="geometry" />
        </mxCell>
        <mxCell id="nEZqApxPXUkpChrzJhQE-35" style="edgeStyle=orthogonalEdgeStyle;rounded=0;orthogonalLoop=1;jettySize=auto;html=1;entryX=0;entryY=0.5;entryDx=0;entryDy=0;entryPerimeter=0;" edge="1" parent="nEZqApxPXUkpChrzJhQE-6" source="nEZqApxPXUkpChrzJhQE-37" target="nEZqApxPXUkpChrzJhQE-34">
          <mxGeometry relative="1" as="geometry" />
        </mxCell>
        <mxCell id="nEZqApxPXUkpChrzJhQE-36" style="edgeStyle=orthogonalEdgeStyle;rounded=0;orthogonalLoop=1;jettySize=auto;html=1;" edge="1" parent="nEZqApxPXUkpChrzJhQE-6" source="nEZqApxPXUkpChrzJhQE-34" target="nEZqApxPXUkpChrzJhQE-34">
          <mxGeometry relative="1" as="geometry" />
        </mxCell>
        <mxCell id="nEZqApxPXUkpChrzJhQE-38" value="" style="edgeStyle=orthogonalEdgeStyle;rounded=0;orthogonalLoop=1;jettySize=auto;html=1;entryX=0;entryY=0.5;entryDx=0;entryDy=0;entryPerimeter=0;" edge="1" parent="nEZqApxPXUkpChrzJhQE-6" source="UEzPUAAOIrF-is8g5C7q-115" target="nEZqApxPXUkpChrzJhQE-37">
          <mxGeometry relative="1" as="geometry">
            <mxPoint x="768" y="412" as="sourcePoint" />
            <mxPoint x="950" y="139" as="targetPoint" />
          </mxGeometry>
        </mxCell>
        <mxCell id="nEZqApxPXUkpChrzJhQE-37" value="" style="points=[[0.145,0.145,0],[0.5,0,0],[0.855,0.145,0],[1,0.5,0],[0.855,0.855,0],[0.5,1,0],[0.145,0.855,0],[0,0.5,0]];shape=mxgraph.bpmn.event;html=1;verticalLabelPosition=bottom;labelBackgroundColor=#ffffff;verticalAlign=top;align=center;perimeter=ellipsePerimeter;outlineConnect=0;aspect=fixed;outline=catching;symbol=timer;" vertex="1" parent="nEZqApxPXUkpChrzJhQE-6">
          <mxGeometry x="560" y="172.5" width="37.5" height="37.5" as="geometry" />
        </mxCell>
        <mxCell id="nEZqApxPXUkpChrzJhQE-12" style="edgeStyle=orthogonalEdgeStyle;rounded=0;orthogonalLoop=1;jettySize=auto;html=1;entryX=0;entryY=0.5;entryDx=0;entryDy=0;entryPerimeter=0;" edge="1" parent="1" source="UEzPUAAOIrF-is8g5C7q-109" target="nEZqApxPXUkpChrzJhQE-3">
          <mxGeometry relative="1" as="geometry">
            <Array as="points">
              <mxPoint x="230" y="335" />
              <mxPoint x="230" y="129" />
            </Array>
          </mxGeometry>
        </mxCell>
        <mxCell id="nEZqApxPXUkpChrzJhQE-19" value="Segment" style="aspect=fixed;sketch=0;html=1;dashed=0;whitespace=wrap;verticalLabelPosition=bottom;verticalAlign=top;fillColor=#2875E2;strokeColor=#ffffff;points=[[0.005,0.63,0],[0.1,0.2,0],[0.9,0.2,0],[0.5,0,0],[0.995,0.63,0],[0.72,0.99,0],[0.5,1,0],[0.28,0.99,0]];shape=mxgraph.kubernetes.icon2;prIcon=api" vertex="1" parent="1">
          <mxGeometry x="480" y="610" width="50" height="48" as="geometry" />
        </mxCell>
        <mxCell id="nEZqApxPXUkpChrzJhQE-20" value="Strapi" style="aspect=fixed;sketch=0;html=1;dashed=0;whitespace=wrap;verticalLabelPosition=bottom;verticalAlign=top;fillColor=#2875E2;strokeColor=#ffffff;points=[[0.005,0.63,0],[0.1,0.2,0],[0.9,0.2,0],[0.5,0,0],[0.995,0.63,0],[0.72,0.99,0],[0.5,1,0],[0.28,0.99,0]];shape=mxgraph.kubernetes.icon2;prIcon=api" vertex="1" parent="1">
          <mxGeometry x="620" y="610" width="50" height="48" as="geometry" />
        </mxCell>
        <mxCell id="nEZqApxPXUkpChrzJhQE-21" value="Okta" style="aspect=fixed;sketch=0;html=1;dashed=0;whitespace=wrap;verticalLabelPosition=bottom;verticalAlign=top;fillColor=#2875E2;strokeColor=#ffffff;points=[[0.005,0.63,0],[0.1,0.2,0],[0.9,0.2,0],[0.5,0,0],[0.995,0.63,0],[0.72,0.99,0],[0.5,1,0],[0.28,0.99,0]];shape=mxgraph.kubernetes.icon2;prIcon=api" vertex="1" parent="1">
          <mxGeometry x="740" y="610" width="50" height="48" as="geometry" />
        </mxCell>
        <mxCell id="nEZqApxPXUkpChrzJhQE-22" value="Mule Listeners&lt;div&gt;&lt;br&gt;&lt;/div&gt;" style="aspect=fixed;sketch=0;html=1;dashed=0;whitespace=wrap;verticalLabelPosition=bottom;verticalAlign=top;fillColor=#2875E2;strokeColor=#ffffff;points=[[0.005,0.63,0],[0.1,0.2,0],[0.9,0.2,0],[0.5,0,0],[0.995,0.63,0],[0.72,0.99,0],[0.5,1,0],[0.28,0.99,0]];shape=mxgraph.kubernetes.icon2;prIcon=api" vertex="1" parent="1">
          <mxGeometry x="880" y="610" width="50" height="48" as="geometry" />
        </mxCell>
        <mxCell id="nEZqApxPXUkpChrzJhQE-23" style="edgeStyle=orthogonalEdgeStyle;rounded=0;orthogonalLoop=1;jettySize=auto;html=1;entryX=0.469;entryY=0.229;entryDx=0;entryDy=0;entryPerimeter=0;" edge="1" parent="1" source="UEzPUAAOIrF-is8g5C7q-115" target="nEZqApxPXUkpChrzJhQE-19">
          <mxGeometry relative="1" as="geometry">
            <Array as="points">
              <mxPoint x="729" y="490" />
              <mxPoint x="500" y="490" />
              <mxPoint x="500" y="621" />
            </Array>
          </mxGeometry>
        </mxCell>
        <mxCell id="nEZqApxPXUkpChrzJhQE-24" style="edgeStyle=orthogonalEdgeStyle;rounded=0;orthogonalLoop=1;jettySize=auto;html=1;entryX=0.554;entryY=0.378;entryDx=0;entryDy=0;entryPerimeter=0;" edge="1" parent="1" source="UEzPUAAOIrF-is8g5C7q-115" target="nEZqApxPXUkpChrzJhQE-20">
          <mxGeometry relative="1" as="geometry">
            <Array as="points">
              <mxPoint x="729" y="490" />
              <mxPoint x="648" y="490" />
            </Array>
          </mxGeometry>
        </mxCell>
        <mxCell id="nEZqApxPXUkpChrzJhQE-25" style="edgeStyle=orthogonalEdgeStyle;rounded=0;orthogonalLoop=1;jettySize=auto;html=1;entryX=0.5;entryY=0;entryDx=0;entryDy=0;entryPerimeter=0;" edge="1" parent="1" source="UEzPUAAOIrF-is8g5C7q-115" target="nEZqApxPXUkpChrzJhQE-21">
          <mxGeometry relative="1" as="geometry">
            <Array as="points">
              <mxPoint x="729" y="490" />
              <mxPoint x="765" y="490" />
            </Array>
          </mxGeometry>
        </mxCell>
        <mxCell id="nEZqApxPXUkpChrzJhQE-26" style="edgeStyle=orthogonalEdgeStyle;rounded=0;orthogonalLoop=1;jettySize=auto;html=1;entryX=0.583;entryY=0.229;entryDx=0;entryDy=0;entryPerimeter=0;" edge="1" parent="1" source="UEzPUAAOIrF-is8g5C7q-115" target="nEZqApxPXUkpChrzJhQE-22">
          <mxGeometry relative="1" as="geometry">
            <Array as="points">
              <mxPoint x="729" y="490" />
              <mxPoint x="909" y="490" />
            </Array>
          </mxGeometry>
        </mxCell>
        <mxCell id="nEZqApxPXUkpChrzJhQE-31" value="&lt;div&gt;User Survey Lifecycle&lt;/div&gt;&lt;div&gt;&lt;br&gt;&lt;/div&gt;&lt;div&gt;&lt;ol&gt;&lt;li&gt;Survey React Widget is loaded via CDN&lt;/li&gt;&lt;li&gt;UI triggers Survey&lt;/li&gt;&lt;li&gt;API Gateway passed to Lambda API Handlers&lt;/li&gt;&lt;li&gt;Survey is created and saved to Dynamo&lt;/li&gt;&lt;li&gt;Survey is saved and completed&lt;/li&gt;&lt;li&gt;Lambda handlers update dynamo&lt;/li&gt;&lt;/ol&gt;&lt;div&gt;Post Processing Automated Lifecycle&lt;/div&gt;&lt;/div&gt;&lt;div&gt;&lt;ol&gt;&lt;li&gt;Dynamo db stream is handled by Lambda&lt;/li&gt;&lt;li&gt;Stream handler detects a survey has been completed&lt;/li&gt;&lt;li&gt;Business logic detects post processing is required&lt;/li&gt;&lt;li&gt;Stream handler distributes to appropriate queues for post processing&lt;/li&gt;&lt;li&gt;Lambda Queue Handler process each post processing event and update dynamo recod&lt;/li&gt;&lt;/ol&gt;&lt;div&gt;Post Processing Scheduled&lt;/div&gt;&lt;/div&gt;&lt;div&gt;&lt;ol&gt;&lt;li&gt;Nightly job kicks off&lt;/li&gt;&lt;li&gt;Dynamo is queried to search for records ready to archive&lt;/li&gt;&lt;li&gt;ETL will pull dynamo records and insert to redshift&lt;/li&gt;&lt;li&gt;TTL is set on dynamo records to schedule for deletion&lt;/li&gt;&lt;/ol&gt;&lt;/div&gt;" style="rounded=0;whiteSpace=wrap;html=1;align=left;" vertex="1" parent="1">
          <mxGeometry x="1169" y="70" width="311" height="480" as="geometry" />
        </mxCell>
      </root>
    </mxGraphModel>
  </diagram>
  <diagram id="lPXrOoCfFmX2dsKlIgas" name="SQS Processing">
    <mxGraphModel grid="1" page="1" gridSize="10" guides="1" tooltips="1" connect="1" arrows="1" fold="1" pageScale="1" pageWidth="850" pageHeight="1100" math="0" shadow="0">
      <root>
        <mxCell id="0" />
        <mxCell id="1" parent="0" />
        <mxCell id="iG-TM50v-D8PawjfCVhi-9" style="edgeStyle=orthogonalEdgeStyle;rounded=0;orthogonalLoop=1;jettySize=auto;html=1;" edge="1" parent="1" source="iG-TM50v-D8PawjfCVhi-1" target="iG-TM50v-D8PawjfCVhi-6">
          <mxGeometry relative="1" as="geometry" />
        </mxCell>
        <mxCell id="iG-TM50v-D8PawjfCVhi-1" value="Post Processing Event Queues" style="sketch=0;points=[[0,0,0],[0.25,0,0],[0.5,0,0],[0.75,0,0],[1,0,0],[0,1,0],[0.25,1,0],[0.5,1,0],[0.75,1,0],[1,1,0],[0,0.25,0],[0,0.5,0],[0,0.75,0],[1,0.25,0],[1,0.5,0],[1,0.75,0]];outlineConnect=0;fontColor=#232F3E;fillColor=#E7157B;strokeColor=#ffffff;dashed=0;verticalLabelPosition=bottom;verticalAlign=top;align=center;html=1;fontSize=12;fontStyle=0;aspect=fixed;shape=mxgraph.aws4.resourceIcon;resIcon=mxgraph.aws4.sqs;" vertex="1" parent="1">
          <mxGeometry x="140" y="110" width="78" height="78" as="geometry" />
        </mxCell>
        <mxCell id="iG-TM50v-D8PawjfCVhi-18" style="edgeStyle=orthogonalEdgeStyle;rounded=0;orthogonalLoop=1;jettySize=auto;html=1;" edge="1" parent="1" source="iG-TM50v-D8PawjfCVhi-4" target="iG-TM50v-D8PawjfCVhi-17">
          <mxGeometry relative="1" as="geometry" />
        </mxCell>
        <mxCell id="iG-TM50v-D8PawjfCVhi-4" value="Retry Queue" style="sketch=0;points=[[0,0,0],[0.25,0,0],[0.5,0,0],[0.75,0,0],[1,0,0],[0,1,0],[0.25,1,0],[0.5,1,0],[0.75,1,0],[1,1,0],[0,0.25,0],[0,0.5,0],[0,0.75,0],[1,0.25,0],[1,0.5,0],[1,0.75,0]];outlineConnect=0;fontColor=#232F3E;fillColor=#E7157B;strokeColor=#ffffff;dashed=0;verticalLabelPosition=bottom;verticalAlign=top;align=center;html=1;fontSize=12;fontStyle=0;aspect=fixed;shape=mxgraph.aws4.resourceIcon;resIcon=mxgraph.aws4.sqs;" vertex="1" parent="1">
          <mxGeometry x="140" y="230" width="78" height="78" as="geometry" />
        </mxCell>
        <mxCell id="iG-TM50v-D8PawjfCVhi-30" style="edgeStyle=orthogonalEdgeStyle;rounded=0;orthogonalLoop=1;jettySize=auto;html=1;exitX=1;exitY=0.5;exitDx=0;exitDy=0;exitPerimeter=0;" edge="1" parent="1" source="iG-TM50v-D8PawjfCVhi-5" target="iG-TM50v-D8PawjfCVhi-29">
          <mxGeometry relative="1" as="geometry" />
        </mxCell>
        <mxCell id="iG-TM50v-D8PawjfCVhi-5" value="Failover Queue&lt;div&gt;&lt;br&gt;&lt;/div&gt;" style="sketch=0;points=[[0,0,0],[0.25,0,0],[0.5,0,0],[0.75,0,0],[1,0,0],[0,1,0],[0.25,1,0],[0.5,1,0],[0.75,1,0],[1,1,0],[0,0.25,0],[0,0.5,0],[0,0.75,0],[1,0.25,0],[1,0.5,0],[1,0.75,0]];outlineConnect=0;fontColor=#232F3E;fillColor=#E7157B;strokeColor=#ffffff;dashed=0;verticalLabelPosition=bottom;verticalAlign=top;align=center;html=1;fontSize=12;fontStyle=0;aspect=fixed;shape=mxgraph.aws4.resourceIcon;resIcon=mxgraph.aws4.sqs;" vertex="1" parent="1">
          <mxGeometry x="140" y="350" width="78" height="78" as="geometry" />
        </mxCell>
        <mxCell id="iG-TM50v-D8PawjfCVhi-21" style="edgeStyle=orthogonalEdgeStyle;rounded=0;orthogonalLoop=1;jettySize=auto;html=1;entryX=0;entryY=0.5;entryDx=0;entryDy=0;" edge="1" parent="1" source="iG-TM50v-D8PawjfCVhi-6" target="iG-TM50v-D8PawjfCVhi-12">
          <mxGeometry relative="1" as="geometry" />
        </mxCell>
        <mxCell id="iG-TM50v-D8PawjfCVhi-6" value="" style="sketch=0;outlineConnect=0;fontColor=#232F3E;gradientColor=none;fillColor=#ED7100;strokeColor=none;dashed=0;verticalLabelPosition=bottom;verticalAlign=top;align=center;html=1;fontSize=12;fontStyle=0;aspect=fixed;pointerEvents=1;shape=mxgraph.aws4.lambda_function;" vertex="1" parent="1">
          <mxGeometry x="274" y="135" width="40" height="40" as="geometry" />
        </mxCell>
        <mxCell id="iG-TM50v-D8PawjfCVhi-7" value="Survey Tables" style="outlineConnect=0;dashed=0;verticalLabelPosition=bottom;verticalAlign=top;align=center;html=1;shape=mxgraph.aws3.dynamo_db;fillColor=#2E73B8;gradientColor=none;" vertex="1" parent="1">
          <mxGeometry x="670" y="114.5" width="72" height="81" as="geometry" />
        </mxCell>
        <mxCell id="iG-TM50v-D8PawjfCVhi-8" value="Failvoer Table" style="outlineConnect=0;dashed=0;verticalLabelPosition=bottom;verticalAlign=top;align=center;html=1;shape=mxgraph.aws3.dynamo_db;fillColor=#2E73B8;gradientColor=none;" vertex="1" parent="1">
          <mxGeometry x="598" y="347" width="72" height="81" as="geometry" />
        </mxCell>
        <mxCell id="iG-TM50v-D8PawjfCVhi-12" value="Run Post Processing Event" style="html=1;dashed=0;whiteSpace=wrap;" vertex="1" parent="1">
          <mxGeometry x="350" y="130" width="100" height="50" as="geometry" />
        </mxCell>
        <mxCell id="iG-TM50v-D8PawjfCVhi-14" style="edgeStyle=orthogonalEdgeStyle;rounded=0;orthogonalLoop=1;jettySize=auto;html=1;" edge="1" parent="1" source="iG-TM50v-D8PawjfCVhi-13" target="iG-TM50v-D8PawjfCVhi-7">
          <mxGeometry relative="1" as="geometry" />
        </mxCell>
        <mxCell id="iG-TM50v-D8PawjfCVhi-16" style="edgeStyle=orthogonalEdgeStyle;rounded=0;orthogonalLoop=1;jettySize=auto;html=1;" edge="1" parent="1" source="iG-TM50v-D8PawjfCVhi-13" target="iG-TM50v-D8PawjfCVhi-4">
          <mxGeometry relative="1" as="geometry">
            <Array as="points">
              <mxPoint x="510" y="220" />
              <mxPoint x="179" y="220" />
            </Array>
          </mxGeometry>
        </mxCell>
        <mxCell id="iG-TM50v-D8PawjfCVhi-13" value="Succes?" style="strokeWidth=2;html=1;shape=mxgraph.flowchart.decision;whiteSpace=wrap;" vertex="1" parent="1">
          <mxGeometry x="480" y="124.5" width="61" height="61" as="geometry" />
        </mxCell>
        <mxCell id="iG-TM50v-D8PawjfCVhi-15" style="edgeStyle=orthogonalEdgeStyle;rounded=0;orthogonalLoop=1;jettySize=auto;html=1;entryX=0;entryY=0.5;entryDx=0;entryDy=0;entryPerimeter=0;" edge="1" parent="1" source="iG-TM50v-D8PawjfCVhi-12" target="iG-TM50v-D8PawjfCVhi-13">
          <mxGeometry relative="1" as="geometry" />
        </mxCell>
        <mxCell id="iG-TM50v-D8PawjfCVhi-23" style="edgeStyle=orthogonalEdgeStyle;rounded=0;orthogonalLoop=1;jettySize=auto;html=1;entryX=0;entryY=0.5;entryDx=0;entryDy=0;" edge="1" parent="1" source="iG-TM50v-D8PawjfCVhi-17" target="iG-TM50v-D8PawjfCVhi-20">
          <mxGeometry relative="1" as="geometry" />
        </mxCell>
        <mxCell id="iG-TM50v-D8PawjfCVhi-17" value="" style="sketch=0;outlineConnect=0;fontColor=#232F3E;gradientColor=none;fillColor=#ED7100;strokeColor=none;dashed=0;verticalLabelPosition=bottom;verticalAlign=top;align=center;html=1;fontSize=12;fontStyle=0;aspect=fixed;pointerEvents=1;shape=mxgraph.aws4.lambda_function;" vertex="1" parent="1">
          <mxGeometry x="270" y="245" width="48" height="48" as="geometry" />
        </mxCell>
        <mxCell id="iG-TM50v-D8PawjfCVhi-19" value="Retry Exceeded?&lt;div&gt;&lt;br&gt;&lt;/div&gt;" style="strokeWidth=2;html=1;shape=mxgraph.flowchart.decision;whiteSpace=wrap;" vertex="1" parent="1">
          <mxGeometry x="530" y="234.75" width="80" height="70.5" as="geometry" />
        </mxCell>
        <mxCell id="iG-TM50v-D8PawjfCVhi-20" value="Throttle and Detect retries" style="html=1;dashed=0;whiteSpace=wrap;" vertex="1" parent="1">
          <mxGeometry x="370" y="245" width="100" height="50" as="geometry" />
        </mxCell>
        <mxCell id="iG-TM50v-D8PawjfCVhi-24" style="edgeStyle=orthogonalEdgeStyle;rounded=0;orthogonalLoop=1;jettySize=auto;html=1;exitX=1;exitY=0.5;exitDx=0;exitDy=0;entryX=0;entryY=0.5;entryDx=0;entryDy=0;entryPerimeter=0;" edge="1" parent="1" source="iG-TM50v-D8PawjfCVhi-20" target="iG-TM50v-D8PawjfCVhi-19">
          <mxGeometry relative="1" as="geometry" />
        </mxCell>
        <mxCell id="iG-TM50v-D8PawjfCVhi-25" style="edgeStyle=orthogonalEdgeStyle;rounded=0;orthogonalLoop=1;jettySize=auto;html=1;entryX=0.5;entryY=0;entryDx=0;entryDy=0;entryPerimeter=0;" edge="1" parent="1">
          <mxGeometry relative="1" as="geometry">
            <mxPoint x="570" y="307.9999999999999" as="sourcePoint" />
            <mxPoint x="179.00000000000023" y="352.75" as="targetPoint" />
            <Array as="points">
              <mxPoint x="570" y="332.75" />
              <mxPoint x="179" y="332.75" />
            </Array>
          </mxGeometry>
        </mxCell>
        <mxCell id="iG-TM50v-D8PawjfCVhi-28" value="Yes" style="edgeLabel;html=1;align=center;verticalAlign=middle;resizable=0;points=[];" vertex="1" connectable="0" parent="iG-TM50v-D8PawjfCVhi-25">
          <mxGeometry x="-0.9487" y="3" relative="1" as="geometry">
            <mxPoint y="1" as="offset" />
          </mxGeometry>
        </mxCell>
        <mxCell id="iG-TM50v-D8PawjfCVhi-26" style="edgeStyle=orthogonalEdgeStyle;rounded=0;orthogonalLoop=1;jettySize=auto;html=1;entryX=0.5;entryY=0;entryDx=0;entryDy=0;entryPerimeter=0;" edge="1" parent="1" source="iG-TM50v-D8PawjfCVhi-19" target="iG-TM50v-D8PawjfCVhi-1">
          <mxGeometry relative="1" as="geometry">
            <Array as="points">
              <mxPoint x="570" y="90" />
              <mxPoint x="179" y="90" />
            </Array>
          </mxGeometry>
        </mxCell>
        <mxCell id="iG-TM50v-D8PawjfCVhi-27" value="&lt;div&gt;No&lt;/div&gt;" style="edgeLabel;html=1;align=center;verticalAlign=middle;resizable=0;points=[];" vertex="1" connectable="0" parent="iG-TM50v-D8PawjfCVhi-26">
          <mxGeometry x="-0.8762" y="-3" relative="1" as="geometry">
            <mxPoint as="offset" />
          </mxGeometry>
        </mxCell>
        <mxCell id="iG-TM50v-D8PawjfCVhi-32" value="" style="edgeStyle=orthogonalEdgeStyle;rounded=0;orthogonalLoop=1;jettySize=auto;html=1;" edge="1" parent="1" source="iG-TM50v-D8PawjfCVhi-29" target="iG-TM50v-D8PawjfCVhi-31">
          <mxGeometry relative="1" as="geometry" />
        </mxCell>
        <mxCell id="iG-TM50v-D8PawjfCVhi-29" value="" style="sketch=0;outlineConnect=0;fontColor=#232F3E;gradientColor=none;fillColor=#ED7100;strokeColor=none;dashed=0;verticalLabelPosition=bottom;verticalAlign=top;align=center;html=1;fontSize=12;fontStyle=0;aspect=fixed;pointerEvents=1;shape=mxgraph.aws4.lambda_function;" vertex="1" parent="1">
          <mxGeometry x="274" y="365" width="48" height="48" as="geometry" />
        </mxCell>
        <mxCell id="iG-TM50v-D8PawjfCVhi-33" style="edgeStyle=orthogonalEdgeStyle;rounded=0;orthogonalLoop=1;jettySize=auto;html=1;" edge="1" parent="1" source="iG-TM50v-D8PawjfCVhi-31" target="iG-TM50v-D8PawjfCVhi-8">
          <mxGeometry relative="1" as="geometry" />
        </mxCell>
        <mxCell id="iG-TM50v-D8PawjfCVhi-31" value="Create Report" style="html=1;dashed=0;whiteSpace=wrap;" vertex="1" parent="1">
          <mxGeometry x="370" y="363" width="100" height="50" as="geometry" />
        </mxCell>
      </root>
    </mxGraphModel>
  </diagram>
  <diagram id="ewKxDAPJtPTUHpZHFjG5" name="Failover Reprocessing">
    <mxGraphModel dx="945" dy="605" grid="1" gridSize="10" guides="1" tooltips="1" connect="1" arrows="1" fold="1" page="1" pageScale="1" pageWidth="850" pageHeight="1100" math="0" shadow="0">
      <root>
        <mxCell id="0" />
        <mxCell id="1" parent="0" />
        <mxCell id="x16-ZmMK4ccEnRVu4c79-2" value="Failvover records" style="outlineConnect=0;dashed=0;verticalLabelPosition=bottom;verticalAlign=top;align=center;html=1;shape=mxgraph.aws3.dynamo_db;fillColor=#2E73B8;gradientColor=none;" vertex="1" parent="1">
          <mxGeometry x="650" y="230" width="44.89" height="50.5" as="geometry" />
        </mxCell>
        <mxCell id="x16-ZmMK4ccEnRVu4c79-8" value="" style="edgeStyle=orthogonalEdgeStyle;rounded=0;orthogonalLoop=1;jettySize=auto;html=1;" edge="1" parent="1" source="x16-ZmMK4ccEnRVu4c79-3" target="x16-ZmMK4ccEnRVu4c79-6">
          <mxGeometry relative="1" as="geometry" />
        </mxCell>
        <mxCell id="x16-ZmMK4ccEnRVu4c79-3" value="" style="sketch=0;outlineConnect=0;fontColor=#232F3E;gradientColor=none;fillColor=#ED7100;strokeColor=none;dashed=0;verticalLabelPosition=bottom;verticalAlign=top;align=center;html=1;fontSize=12;fontStyle=0;aspect=fixed;pointerEvents=1;shape=mxgraph.aws4.lambda_function;" vertex="1" parent="1">
          <mxGeometry x="60" y="136" width="48" height="48" as="geometry" />
        </mxCell>
        <mxCell id="x16-ZmMK4ccEnRVu4c79-4" value="" style="points=[[0.145,0.145,0],[0.5,0,0],[0.855,0.145,0],[1,0.5,0],[0.855,0.855,0],[0.5,1,0],[0.145,0.855,0],[0,0.5,0]];shape=mxgraph.bpmn.event;html=1;verticalLabelPosition=bottom;labelBackgroundColor=#ffffff;verticalAlign=top;align=center;perimeter=ellipsePerimeter;outlineConnect=0;aspect=fixed;outline=standard;symbol=timer;" vertex="1" parent="1">
          <mxGeometry x="100" y="150" width="20" height="20" as="geometry" />
        </mxCell>
        <mxCell id="x16-ZmMK4ccEnRVu4c79-10" value="" style="edgeStyle=orthogonalEdgeStyle;rounded=0;orthogonalLoop=1;jettySize=auto;html=1;" edge="1" parent="1" source="x16-ZmMK4ccEnRVu4c79-6" target="x16-ZmMK4ccEnRVu4c79-9">
          <mxGeometry relative="1" as="geometry" />
        </mxCell>
        <mxCell id="x16-ZmMK4ccEnRVu4c79-6" value="Get Failover Records stale for 7 Days&lt;div&gt;&lt;br&gt;&lt;/div&gt;" style="rounded=0;whiteSpace=wrap;html=1;align=center;" vertex="1" parent="1">
          <mxGeometry x="147.44" y="130" width="102.56" height="60" as="geometry" />
        </mxCell>
        <mxCell id="x16-ZmMK4ccEnRVu4c79-16" value="" style="edgeStyle=orthogonalEdgeStyle;rounded=0;orthogonalLoop=1;jettySize=auto;html=1;" edge="1" parent="1" source="x16-ZmMK4ccEnRVu4c79-9" target="x16-ZmMK4ccEnRVu4c79-13">
          <mxGeometry relative="1" as="geometry" />
        </mxCell>
        <mxCell id="x16-ZmMK4ccEnRVu4c79-9" value="Reformat for Queues and track metadata" style="rounded=0;whiteSpace=wrap;html=1;" vertex="1" parent="1">
          <mxGeometry x="280" y="130" width="120" height="60" as="geometry" />
        </mxCell>
        <mxCell id="x16-ZmMK4ccEnRVu4c79-21" value="" style="edgeStyle=orthogonalEdgeStyle;rounded=0;orthogonalLoop=1;jettySize=auto;html=1;" edge="1" parent="1" source="x16-ZmMK4ccEnRVu4c79-13" target="x16-ZmMK4ccEnRVu4c79-20">
          <mxGeometry relative="1" as="geometry" />
        </mxCell>
        <mxCell id="x16-ZmMK4ccEnRVu4c79-13" value="&lt;span style=&quot;font-size: 11px; text-wrap: nowrap; background-color: rgb(255, 255, 255);&quot;&gt;Send back to&amp;nbsp;&lt;/span&gt;&lt;div style=&quot;font-size: 11px; text-wrap: nowrap;&quot;&gt;original queue&amp;nbsp;&lt;/div&gt;&lt;div style=&quot;font-size: 11px; text-wrap: nowrap;&quot;&gt;based on event type&lt;/div&gt;" style="rounded=0;whiteSpace=wrap;html=1;" vertex="1" parent="1">
          <mxGeometry x="450" y="132" width="120" height="60" as="geometry" />
        </mxCell>
        <mxCell id="x16-ZmMK4ccEnRVu4c79-17" value="" style="sketch=0;points=[[0,0,0],[0.25,0,0],[0.5,0,0],[0.75,0,0],[1,0,0],[0,1,0],[0.25,1,0],[0.5,1,0],[0.75,1,0],[1,1,0],[0,0.25,0],[0,0.5,0],[0,0.75,0],[1,0.25,0],[1,0.5,0],[1,0.75,0]];outlineConnect=0;fontColor=#232F3E;fillColor=#E7157B;strokeColor=#ffffff;dashed=0;verticalLabelPosition=bottom;verticalAlign=top;align=center;html=1;fontSize=12;fontStyle=0;aspect=fixed;shape=mxgraph.aws4.resourceIcon;resIcon=mxgraph.aws4.sqs;" vertex="1" parent="1">
          <mxGeometry x="483" y="270" width="54" height="54" as="geometry" />
        </mxCell>
        <mxCell id="x16-ZmMK4ccEnRVu4c79-19" style="edgeStyle=orthogonalEdgeStyle;rounded=0;orthogonalLoop=1;jettySize=auto;html=1;entryX=0;entryY=0.5;entryDx=0;entryDy=0;entryPerimeter=0;" edge="1" parent="1" source="x16-ZmMK4ccEnRVu4c79-6" target="x16-ZmMK4ccEnRVu4c79-2">
          <mxGeometry relative="1" as="geometry">
            <Array as="points">
              <mxPoint x="199" y="255" />
            </Array>
          </mxGeometry>
        </mxCell>
        <mxCell id="x16-ZmMK4ccEnRVu4c79-22" value="" style="edgeStyle=orthogonalEdgeStyle;rounded=0;orthogonalLoop=1;jettySize=auto;html=1;" edge="1" parent="1" source="x16-ZmMK4ccEnRVu4c79-20" target="x16-ZmMK4ccEnRVu4c79-2">
          <mxGeometry relative="1" as="geometry" />
        </mxCell>
        <mxCell id="x16-ZmMK4ccEnRVu4c79-39" value="" style="edgeStyle=orthogonalEdgeStyle;rounded=0;orthogonalLoop=1;jettySize=auto;html=1;" edge="1" parent="1" source="x16-ZmMK4ccEnRVu4c79-20" target="x16-ZmMK4ccEnRVu4c79-38">
          <mxGeometry relative="1" as="geometry" />
        </mxCell>
        <mxCell id="x16-ZmMK4ccEnRVu4c79-20" value="Set TTL for cleanup" style="whiteSpace=wrap;html=1;rounded=0;" vertex="1" parent="1">
          <mxGeometry x="612.44" y="132" width="120" height="60" as="geometry" />
        </mxCell>
        <mxCell id="x16-ZmMK4ccEnRVu4c79-23" value="Failover Retry Job" style="text;html=1;align=center;verticalAlign=middle;whiteSpace=wrap;rounded=0;" vertex="1" parent="1">
          <mxGeometry x="54" y="60.25" width="60" height="30" as="geometry" />
        </mxCell>
        <mxCell id="x16-ZmMK4ccEnRVu4c79-26" style="edgeStyle=orthogonalEdgeStyle;rounded=0;orthogonalLoop=1;jettySize=auto;html=1;" edge="1" parent="1" source="x16-ZmMK4ccEnRVu4c79-24" target="x16-ZmMK4ccEnRVu4c79-25">
          <mxGeometry relative="1" as="geometry" />
        </mxCell>
        <mxCell id="x16-ZmMK4ccEnRVu4c79-24" value="" style="sketch=0;points=[[0,0,0],[0.25,0,0],[0.5,0,0],[0.75,0,0],[1,0,0],[0,1,0],[0.25,1,0],[0.5,1,0],[0.75,1,0],[1,1,0],[0,0.25,0],[0,0.5,0],[0,0.75,0],[1,0.25,0],[1,0.5,0],[1,0.75,0]];outlineConnect=0;fontColor=#232F3E;fillColor=#8C4FFF;strokeColor=#ffffff;dashed=0;verticalLabelPosition=bottom;verticalAlign=top;align=center;html=1;fontSize=12;fontStyle=0;aspect=fixed;shape=mxgraph.aws4.resourceIcon;resIcon=mxgraph.aws4.api_gateway;" vertex="1" parent="1">
          <mxGeometry x="90" y="360" width="40" height="40" as="geometry" />
        </mxCell>
        <mxCell id="x16-ZmMK4ccEnRVu4c79-29" style="edgeStyle=orthogonalEdgeStyle;rounded=0;orthogonalLoop=1;jettySize=auto;html=1;entryX=0;entryY=0.5;entryDx=0;entryDy=0;" edge="1" parent="1" source="x16-ZmMK4ccEnRVu4c79-25" target="x16-ZmMK4ccEnRVu4c79-28">
          <mxGeometry relative="1" as="geometry" />
        </mxCell>
        <mxCell id="x16-ZmMK4ccEnRVu4c79-25" value="" style="sketch=0;outlineConnect=0;fontColor=#232F3E;gradientColor=none;fillColor=#ED7100;strokeColor=none;dashed=0;verticalLabelPosition=bottom;verticalAlign=top;align=center;html=1;fontSize=12;fontStyle=0;aspect=fixed;pointerEvents=1;shape=mxgraph.aws4.lambda_function;" vertex="1" parent="1">
          <mxGeometry x="160" y="360" width="38" height="38" as="geometry" />
        </mxCell>
        <mxCell id="x16-ZmMK4ccEnRVu4c79-27" value="Manual Retry API" style="text;html=1;align=center;verticalAlign=middle;whiteSpace=wrap;rounded=0;" vertex="1" parent="1">
          <mxGeometry x="54" y="300" width="60" height="30" as="geometry" />
        </mxCell>
        <mxCell id="x16-ZmMK4ccEnRVu4c79-31" style="edgeStyle=orthogonalEdgeStyle;rounded=0;orthogonalLoop=1;jettySize=auto;html=1;" edge="1" parent="1" source="x16-ZmMK4ccEnRVu4c79-28" target="x16-ZmMK4ccEnRVu4c79-30">
          <mxGeometry relative="1" as="geometry" />
        </mxCell>
        <mxCell id="x16-ZmMK4ccEnRVu4c79-28" value="Reformat for Queu" style="rounded=0;whiteSpace=wrap;html=1;" vertex="1" parent="1">
          <mxGeometry x="260" y="350" width="110" height="60" as="geometry" />
        </mxCell>
        <mxCell id="x16-ZmMK4ccEnRVu4c79-33" value="" style="edgeStyle=orthogonalEdgeStyle;rounded=0;orthogonalLoop=1;jettySize=auto;html=1;" edge="1" parent="1" source="x16-ZmMK4ccEnRVu4c79-30" target="x16-ZmMK4ccEnRVu4c79-17">
          <mxGeometry relative="1" as="geometry" />
        </mxCell>
        <mxCell id="x16-ZmMK4ccEnRVu4c79-36" value="" style="edgeStyle=orthogonalEdgeStyle;rounded=0;orthogonalLoop=1;jettySize=auto;html=1;" edge="1" parent="1" source="x16-ZmMK4ccEnRVu4c79-30" target="x16-ZmMK4ccEnRVu4c79-35">
          <mxGeometry relative="1" as="geometry" />
        </mxCell>
        <mxCell id="x16-ZmMK4ccEnRVu4c79-30" value="&lt;span style=&quot;font-size: 11px; text-wrap: nowrap; background-color: rgb(255, 255, 255);&quot;&gt;Send back to&amp;nbsp;&lt;/span&gt;&lt;div style=&quot;font-size: 11px; text-wrap: nowrap;&quot;&gt;original queue&amp;nbsp;&lt;/div&gt;&lt;div style=&quot;font-size: 11px; text-wrap: nowrap;&quot;&gt;based on event type&lt;/div&gt;" style="rounded=0;whiteSpace=wrap;html=1;" vertex="1" parent="1">
          <mxGeometry x="450" y="350" width="120" height="60" as="geometry" />
        </mxCell>
        <mxCell id="x16-ZmMK4ccEnRVu4c79-32" style="edgeStyle=orthogonalEdgeStyle;rounded=0;orthogonalLoop=1;jettySize=auto;html=1;entryX=0.5;entryY=0;entryDx=0;entryDy=0;entryPerimeter=0;" edge="1" parent="1" source="x16-ZmMK4ccEnRVu4c79-13" target="x16-ZmMK4ccEnRVu4c79-17">
          <mxGeometry relative="1" as="geometry" />
        </mxCell>
        <mxCell id="x16-ZmMK4ccEnRVu4c79-35" value="" style="ellipse;shape=doubleEllipse;whiteSpace=wrap;html=1;" vertex="1" parent="1">
          <mxGeometry x="620" y="350" width="60" height="60" as="geometry" />
        </mxCell>
        <mxCell id="x16-ZmMK4ccEnRVu4c79-38" value="" style="ellipse;shape=doubleEllipse;whiteSpace=wrap;html=1;" vertex="1" parent="1">
          <mxGeometry x="770" y="132" width="60" height="60" as="geometry" />
        </mxCell>
      </root>
    </mxGraphModel>
  </diagram>
</mxfile>
